<svg xmlns="http://www.w3.org/2000/svg" xmlns:xlink="http://www.w3.org/1999/xlink" width="50" zoomAndPan="magnify" viewBox="0 0 37.5 37.499999" height="50" preserveAspectRatio="xMidYMid meet" version="1.2"><defs><clipPath id="250cd597d1"><path d="M 0 0 L 37.007812 0 L 37.007812 37.007812 L 0 37.007812 Z M 0 0 "/></clipPath></defs><g id="9ec32cf33b"><g clip-rule="nonzero" clip-path="url(#250cd597d1)"><path style=" stroke:none;fill-rule:nonzero;fill:#ffffff;fill-opacity:1;" d="M 0 0 L 37.007812 0 L 37.007812 37.007812 L 0 37.007812 Z M 0 0 "/><path style=" stroke:none;fill-rule:nonzero;fill:#ffffff;fill-opacity:1;" d="M 0 0 L 37.007812 0 L 37.007812 37.007812 L 0 37.007812 Z M 0 0 "/></g><path style=" stroke:none;fill-rule:nonzero;fill:#000000;fill-opacity:1;" d="M 19.5625 0.582031 L 21.910156 2.917969 C 22.289062 3.292969 22.835938 3.4375 23.351562 3.300781 L 26.554688 2.453125 C 27.351562 2.242188 28.167969 2.714844 28.382812 3.511719 L 29.25 6.707031 C 29.390625 7.21875 29.789062 7.621094 30.304688 7.761719 L 33.5 8.625 C 34.296875 8.84375 34.769531 9.660156 34.558594 10.457031 L 33.710938 13.660156 C 33.574219 14.171875 33.71875 14.722656 34.09375 15.097656 L 36.429688 17.449219 C 37.011719 18.03125 37.011719 18.976562 36.429688 19.5625 L 34.09375 21.910156 C 33.71875 22.289062 33.574219 22.835938 33.710938 23.351562 L 34.558594 26.550781 C 34.769531 27.351562 34.296875 28.167969 33.5 28.382812 L 30.304688 29.25 C 29.789062 29.386719 29.390625 29.789062 29.25 30.304688 L 28.382812 33.5 C 28.167969 34.296875 27.351562 34.769531 26.554688 34.554688 L 23.351562 33.707031 C 22.835938 33.570312 22.289062 33.71875 21.910156 34.09375 L 19.5625 36.429688 C 18.976562 37.007812 18.035156 37.007812 17.449219 36.429688 L 15.101562 34.09375 C 14.722656 33.71875 14.175781 33.570312 13.660156 33.707031 L 10.457031 34.554688 C 9.660156 34.769531 8.84375 34.292969 8.628906 33.5 L 7.761719 30.304688 C 7.621094 29.789062 7.222656 29.386719 6.707031 29.25 L 3.511719 28.382812 C 2.714844 28.167969 2.242188 27.351562 2.453125 26.550781 L 3.300781 23.351562 C 3.4375 22.835938 3.292969 22.289062 2.917969 21.910156 L 0.582031 19.5625 C 0 18.976562 0 18.035156 0.582031 17.449219 L 2.917969 15.097656 C 3.292969 14.722656 3.4375 14.171875 3.300781 13.660156 L 2.453125 10.457031 C 2.242188 9.660156 2.714844 8.84375 3.511719 8.625 L 6.707031 7.761719 C 7.222656 7.621094 7.621094 7.21875 7.761719 6.707031 L 8.628906 3.511719 C 8.84375 2.714844 9.660156 2.242188 10.457031 2.453125 L 13.660156 3.300781 C 14.175781 3.4375 14.722656 3.292969 15.101562 2.917969 L 17.449219 0.582031 C 18.035156 0 18.976562 0 19.5625 0.582031 Z M 19.5625 0.582031 "/><path style=" stroke:none;fill-rule:nonzero;fill:#ffffff;fill-opacity:1;" d="M 15.003906 25.652344 C 14.644531 25.652344 14.28125 25.515625 14.007812 25.238281 L 9.539062 20.769531 C 8.988281 20.21875 8.988281 19.328125 9.539062 18.773438 C 10.089844 18.222656 10.984375 18.222656 11.535156 18.773438 L 15.003906 22.246094 L 25.476562 11.773438 C 26.027344 11.222656 26.921875 11.222656 27.476562 11.773438 C 28.027344 12.324219 28.027344 13.21875 27.476562 13.769531 L 16.003906 25.238281 C 15.726562 25.515625 15.367188 25.652344 15.003906 25.652344 Z M 15.003906 25.652344 "/></g></svg>